<svg width="395" height="67" viewBox="0 0 395 67" fill="none" xmlns="http://www.w3.org/2000/svg">
<path d="M61.0407 61.0459C58.5645 63.5185 55.2083 64.9072 51.7091 64.9072C48.2098 64.9072 44.8536 63.5185 42.3775 61.0459L28.4436 47.1094C28.0545 46.7215 27.746 46.2605 27.5358 45.753C27.3256 45.2454 27.2179 44.7013 27.2187 44.1519V39.7812H22.814C21.9018 39.779 21.0149 39.4815 20.2858 38.9333C20.2101 38.8754 20.1384 38.8125 20.0712 38.7448L17.9775 36.6511C17.5885 36.2622 17.28 35.8006 17.0695 35.2924C16.859 34.7843 16.7506 34.2397 16.7506 33.6897C16.7506 33.1397 16.859 32.5951 17.0695 32.087C17.28 31.5789 17.5885 31.1173 17.9775 30.7284L22.8716 25.8316L2.71925 5.6662C2.52472 5.47167 2.37041 5.24073 2.26513 4.98657C2.15985 4.7324 2.10567 4.45999 2.10567 4.18488C2.10567 3.90977 2.15985 3.63736 2.26513 3.38319C2.37041 3.12902 2.52472 2.89808 2.71925 2.70355C3.11213 2.31068 3.64498 2.08996 4.20058 2.08996C4.47569 2.08996 4.7481 2.14415 5.00227 2.24942C5.25644 2.35471 5.48738 2.50902 5.68191 2.70355L25.8342 22.8716L30.731 17.9748C31.5162 17.1901 32.5809 16.7493 33.691 16.7493C34.8012 16.7493 35.8659 17.1901 36.6511 17.9748L38.7448 20.0686C38.8125 20.1366 38.8755 20.2092 38.9333 20.2858C39.4848 21.0133 39.7835 21.9011 39.7839 22.814V27.2187H44.1519C44.7018 27.2177 45.2464 27.3259 45.7541 27.537C46.2618 27.7482 46.7225 28.0581 47.1094 28.4488L61.0407 42.3801C62.2663 43.6057 63.2385 45.0607 63.9018 46.6621C64.5652 48.2634 64.9066 49.9797 64.9066 51.713C64.9066 53.4463 64.5652 55.1626 63.9018 56.7639C63.2385 58.3653 62.2663 59.8203 61.0407 61.0459ZM53.8251 50.8677L39.1688 36.2114C38.7763 35.8185 38.2438 35.5977 37.6884 35.5974C37.1331 35.5972 36.6003 35.8176 36.2075 36.2101C35.8146 36.6026 35.5937 37.1351 35.5935 37.6905C35.5933 38.2459 35.8136 38.7786 36.2062 39.1714L50.8624 53.8277C51.2553 54.2206 51.7881 54.4413 52.3437 54.4413C52.8993 54.4413 53.4322 54.2206 53.8251 53.8277C54.2179 53.4348 54.4387 52.902 54.4387 52.3464C54.4387 51.7908 54.2179 51.2579 53.8251 50.865V50.8677Z" fill="#F7F7F7"/>
<path d="M120.172 22.001H105.28V17.4307C105.28 15.2979 105.09 13.9395 104.709 13.3555C104.328 12.7715 103.693 12.4795 102.805 12.4795C101.84 12.4795 101.104 12.873 100.596 13.6602C100.113 14.4473 99.8721 15.6406 99.8721 17.2402C99.8721 19.2969 100.151 20.8457 100.71 21.8867C101.243 22.9277 102.754 24.1846 105.242 25.6572C112.377 29.8975 116.871 33.376 118.725 36.0928C120.578 38.8096 121.505 43.1895 121.505 49.2324C121.505 53.625 120.984 56.8623 119.943 58.9443C118.928 61.0264 116.947 62.7783 114.002 64.2002C111.057 65.5967 107.629 66.2949 103.719 66.2949C99.4277 66.2949 95.7588 65.4824 92.7119 63.8574C89.6904 62.2324 87.71 60.1631 86.7705 57.6494C85.8311 55.1357 85.3613 51.5684 85.3613 46.9473V42.9102H100.253V50.4131C100.253 52.7236 100.456 54.209 100.862 54.8691C101.294 55.5293 102.043 55.8594 103.109 55.8594C104.176 55.8594 104.963 55.4404 105.471 54.6025C106.004 53.7646 106.271 52.5205 106.271 50.8701C106.271 47.2393 105.775 44.8652 104.785 43.748C103.77 42.6309 101.269 40.7646 97.2822 38.1494C93.2959 35.5088 90.6553 33.5918 89.3604 32.3984C88.0654 31.2051 86.9863 29.5547 86.123 27.4473C85.2852 25.3398 84.8662 22.6484 84.8662 19.373C84.8662 14.6504 85.4629 11.1973 86.6562 9.01367C87.875 6.83008 89.8301 5.12891 92.5215 3.91016C95.2129 2.66602 98.4629 2.04395 102.271 2.04395C106.436 2.04395 109.978 2.7168 112.897 4.0625C115.843 5.4082 117.785 7.10938 118.725 9.16602C119.689 11.1973 120.172 14.6631 120.172 19.5635V22.001ZM142.604 3.33887V65H126.57V3.33887H142.604ZM181.338 3.33887V15.6787H171.816V65H155.782V15.6787H146.299V3.33887H181.338ZM184.994 3.33887H211.73V15.6787H201.028V27.3711H211.045V39.1016H201.028V52.6602H212.797V65H184.994V3.33887Z" fill="#F7F7F7"/>
<path d="M265.203 22.001H250.312V17.4307C250.312 15.2979 250.121 13.9395 249.74 13.3555C249.359 12.7715 248.725 12.4795 247.836 12.4795C246.871 12.4795 246.135 12.873 245.627 13.6602C245.145 14.4473 244.903 15.6406 244.903 17.2402C244.903 19.2969 245.183 20.8457 245.741 21.8867C246.274 22.9277 247.785 24.1846 250.273 25.6572C257.408 29.8975 261.902 33.376 263.756 36.0928C265.609 38.8096 266.536 43.1895 266.536 49.2324C266.536 53.625 266.016 56.8623 264.975 58.9443C263.959 61.0264 261.979 62.7783 259.033 64.2002C256.088 65.5967 252.66 66.2949 248.75 66.2949C244.459 66.2949 240.79 65.4824 237.743 63.8574C234.722 62.2324 232.741 60.1631 231.802 57.6494C230.862 55.1357 230.393 51.5684 230.393 46.9473V42.9102H245.284V50.4131C245.284 52.7236 245.487 54.209 245.894 54.8691C246.325 55.5293 247.074 55.8594 248.141 55.8594C249.207 55.8594 249.994 55.4404 250.502 54.6025C251.035 53.7646 251.302 52.5205 251.302 50.8701C251.302 47.2393 250.807 44.8652 249.816 43.748C248.801 42.6309 246.3 40.7646 242.313 38.1494C238.327 35.5088 235.687 33.5918 234.392 32.3984C233.097 31.2051 232.018 29.5547 231.154 27.4473C230.316 25.3398 229.897 22.6484 229.897 19.373C229.897 14.6504 230.494 11.1973 231.688 9.01367C232.906 6.83008 234.861 5.12891 237.553 3.91016C240.244 2.66602 243.494 2.04395 247.303 2.04395C251.467 2.04395 255.009 2.7168 257.929 4.0625C260.874 5.4082 262.816 7.10938 263.756 9.16602C264.721 11.1973 265.203 14.6631 265.203 19.5635V22.001ZM305.765 3.33887L294.072 42.6816V65H279.219V42.6816L267.945 3.33887H282.685C284.995 15.3486 286.29 23.4355 286.569 27.5996C287.458 21.0234 288.943 12.9365 291.025 3.33887H305.765ZM344.346 3.33887V65H330.292L321.951 36.9688V65H308.545V3.33887H321.951L330.939 31.1035V3.33887H344.346ZM388.259 30.2275H372.225V19.4873C372.225 16.3643 372.047 14.4219 371.691 13.6602C371.361 12.873 370.612 12.4795 369.444 12.4795C368.124 12.4795 367.286 12.9492 366.931 13.8887C366.575 14.8281 366.397 16.8594 366.397 19.9824V48.623C366.397 51.6191 366.575 53.5742 366.931 54.4883C367.286 55.4023 368.086 55.8594 369.33 55.8594C370.523 55.8594 371.298 55.4023 371.653 54.4883C372.034 53.5742 372.225 51.4287 372.225 48.0518V40.3203H388.259V42.7197C388.259 49.0928 387.802 53.6123 386.888 56.2783C385.999 58.9443 384.006 61.2803 380.908 63.2861C377.836 65.292 374.04 66.2949 369.521 66.2949C364.823 66.2949 360.951 65.4443 357.904 63.7432C354.857 62.042 352.839 59.6934 351.849 56.6973C350.858 53.6758 350.363 49.1436 350.363 43.1006V25.0859C350.363 20.6426 350.516 17.3164 350.82 15.1074C351.125 12.873 352.026 10.7275 353.524 8.6709C355.048 6.61426 357.143 5.00195 359.809 3.83398C362.5 2.64063 365.585 2.04395 369.063 2.04395C373.786 2.04395 377.684 2.95801 380.756 4.78613C383.828 6.61426 385.847 8.89941 386.812 11.6416C387.776 14.3584 388.259 18.5986 388.259 24.3623V30.2275Z" fill="#FEAB16"/>
</svg>
